<svg version="1.1" xmlns="http://www.w3.org/2000/svg" xmlns:xlink="http://www.w3.org/1999/xlink" width="83.34373" height="66.08333" viewBox="0,0,83.34373,66.08333"><g transform="translate(-286.78528,-146.95836)"><g data-paper-data="{&quot;isPaintingLayer&quot;:true}" fill-rule="nonzero" stroke-width="4" stroke-linejoin="miter" stroke-miterlimit="10" stroke-dasharray="" stroke-dashoffset="0" style="mix-blend-mode: normal"><path d="M289.13139,201.7703c0,-13.44212 -0.34611,-36.47862 -0.34611,-43.60976c0,-5.30245 5.61299,-9.20218 10.18859,-9.20218c7.2431,0 29.19638,0 42.22532,0c5.93309,0 10.01553,5.3219 10.01553,9.02912c0,6.92024 0,30.11954 0,43.4367c0,5.72048 -4.31831,9.61751 -8.28498,9.61751c-7.46254,0 -31.15268,0 -44.12892,0c-4.60008,0 -9.66943,-3.73329 -9.66943,-9.2714z" fill="#cf5647" stroke="#4e4430" stroke-linecap="butt"/><path d="M319.63785,195.25107l0.48161,-31.00105l47.32823,6.9833l-0.2408,17.27526z" fill="#e07f72" stroke="#4e4430" stroke-linecap="butt"/><path d="M301.95834,198.04168v-36.08333h36.08333v36.08333z" fill="#bb5043" stroke="#4e4430" stroke-linecap="butt"/><path d="M341.8,167.17989c0,0 0.99751,-4.24385 2.46575,-3.62441c4.24742,1.79195 0.02675,27.64223 2.77802,30.76013c2.13372,2.41805 3.35623,-3.2066 3.35623,-3.2066" fill="none" stroke="#e73131" stroke-linecap="round"/><path d="M351.35,168.82799c0,0 0.90228,-3.83872 2.23036,-3.27842c3.84195,1.62088 0.02419,25.00342 2.51282,27.82367c1.93003,2.18722 3.03583,-2.90048 3.03583,-2.90048" fill="none" stroke="#e73131" stroke-linecap="round"/><path d="M360.35,170.35879c0,0 0.90228,-3.29855 2.23036,-2.81709c3.84195,1.39279 0.02419,21.485 2.51282,23.90839c1.93003,1.87944 3.03583,-2.49233 3.03583,-2.49233" fill="none" stroke="#e73131" stroke-linecap="round"/></g></g></svg>