<svg version="1.1" xmlns="http://www.w3.org/2000/svg" xmlns:xlink="http://www.w3.org/1999/xlink" width="83.96473" height="66.08333" viewBox="0,0,83.96473,66.08333"><g transform="translate(-286.78528,-146.95836)"><g data-paper-data="{&quot;isPaintingLayer&quot;:true}" fill-rule="nonzero" stroke-linecap="butt" stroke-linejoin="miter" stroke-miterlimit="10" stroke-dasharray="" stroke-dashoffset="0" style="mix-blend-mode: normal"><path d="M289.13139,201.7703c0,-13.44212 -0.34611,-36.47862 -0.34611,-43.60976c0,-5.30245 5.61299,-9.20218 10.18859,-9.20218c7.2431,0 29.19638,0 42.22532,0c5.93309,0 10.01553,5.3219 10.01553,9.02912c0,6.92024 0,30.11954 0,43.4367c0,5.72048 -4.31831,9.61751 -8.28498,9.61751c-7.46254,0 -31.15268,0 -44.12892,0c-4.60008,0 -9.66943,-3.73329 -9.66943,-9.2714z" fill="#b74949" stroke="#ac2828" stroke-width="4"/><path d="M333.62192,148.66416l0.10855,62.42944h-27.24386l-0.21708,-62.08333z" fill="#c48686" stroke="none" stroke-width="0"/><path d="M289.13139,201.7703c0,-13.44212 -0.34611,-36.47862 -0.34611,-43.60976c0,-5.30245 5.61299,-9.20218 10.18859,-9.20218c7.2431,0 29.19638,0 42.22532,0c5.93309,0 10.01553,5.3219 10.01553,9.02912c0,6.92024 0,30.11954 0,43.4367c0,5.72048 -4.31831,9.61751 -8.28498,9.61751c-7.46254,0 -31.15268,0 -44.12892,0c-4.60008,0 -9.66943,-3.73329 -9.66943,-9.2714z" fill="none" stroke="#ac2828" stroke-width="4"/><path d="M310.50001,184.94465v-9.48925l58.25,-9.21237v27.71371z" fill="#b74949" stroke="#ac2828" stroke-width="4"/><path d="M301.95835,198.04172v-36.08333h36.08333v36.08333z" fill="#b74949" stroke="none" stroke-width="0"/><path d="M301.95835,198.04172l36.08333,-36.08333v36.08333z" fill="#c56161" stroke="none" stroke-width="0"/><text transform="translate(306.26955,186.9762) scale(0.5,0.5)" font-size="40" xml:space="preserve" fill="#000000" fill-rule="nonzero" stroke="none" stroke-width="1" stroke-linecap="butt" stroke-linejoin="miter" stroke-miterlimit="10" stroke-dasharray="" stroke-dashoffset="0" font-family="Sans Serif" font-weight="normal" text-anchor="start" style="mix-blend-mode: normal"><tspan x="0" dy="0">ЁЯзи</tspan></text><path d="M301.95835,198.04172v-36.08333h36.08333v36.08333z" fill="none" stroke="#ac2828" stroke-width="4"/></g></g></svg>