<svg version="1.1" xmlns="http://www.w3.org/2000/svg" xmlns:xlink="http://www.w3.org/1999/xlink" width="77.36473" height="66.08333" viewBox="0,0,77.36473,66.08333"><g transform="translate(-286.78528,-146.95836)"><g data-paper-data="{&quot;isPaintingLayer&quot;:true}" fill="#ccad14" fill-rule="nonzero" stroke="#353535" stroke-linecap="butt" stroke-linejoin="miter" stroke-miterlimit="10" stroke-dasharray="" stroke-dashoffset="0" style="mix-blend-mode: normal"><path d="M289.13139,201.7703c0,-13.44212 -0.34611,-36.47862 -0.34611,-43.60976c0,-5.30245 5.61299,-9.20218 10.18859,-9.20218c7.2431,0 29.19638,0 42.22532,0c5.93309,0 10.01553,5.3219 10.01553,9.02912c0,6.92024 0,30.11954 0,43.4367c0,5.72048 -4.31831,9.61751 -8.28498,9.61751c-7.46254,0 -31.15268,0 -44.12892,0c-4.60008,0 -9.66943,-3.73329 -9.66943,-9.2714z" stroke-width="4"/><path d="M362.15001,164.25002v9.70197h-59.85v-9.70197z" data-paper-data="{&quot;index&quot;:null}" stroke-width="4"/><path d="M302.30001,195.75002v-9.70198h59.85v9.70198z" stroke-width="4"/><path d="M301.95835,198.04169v-36.08333h36.08333v36.08333z" stroke-width="4"/><path d="M355.27861,177.98246v4.0351h-15.73623v-4.0351z" data-paper-data="{&quot;index&quot;:null}" stroke-width="2"/></g></g></svg>